<svg version="1.1" id="Layer_1" xmlns="http://www.w3.org/2000/svg" xmlns:xlink="http://www.w3.org/1999/xlink" x="0px" y="0px"
	 width="100%" viewBox="0 0 1024 1024" enable-background="new 0 0 1024 1024" xml:space="preserve">
<path fill="#2563ef" opacity="1.000000" stroke="none"
	d="
M136.666443,322.236572 
	C136.271667,317.341766 138.680466,315.829651 142.695602,315.834717 
	C176.849930,315.877655 211.011856,315.476135 245.155792,316.086456 
	C265.536011,316.450745 285.678680,319.378265 303.674835,330.188293 
	C323.873260,342.321259 334.614471,359.912170 335.472473,383.822876 
	C336.515961,412.902924 323.972168,433.640900 298.766693,447.321503 
	C297.082458,448.235657 294.571716,448.732941 294.565216,451.115753 
	C294.557983,453.769714 297.347260,453.689148 299.043976,454.342773 
	C308.881348,458.132660 318.361206,462.592499 326.741150,469.061066 
	C341.794556,480.681000 348.734589,496.438324 350.403381,515.074036 
	C352.253510,535.734863 347.539612,554.395935 334.432220,570.626709 
	C322.860748,584.955505 307.742523,594.008606 290.263458,599.271790 
	C276.487457,603.419922 262.459473,605.556274 247.980133,605.447937 
	C213.327423,605.188599 178.671432,605.374512 144.016754,605.367798 
	C136.983078,605.366455 136.649063,605.016602 136.623077,598.044067 
	C136.453018,552.398682 136.149200,506.753235 136.157028,461.107880 
	C136.164932,414.974854 136.482697,368.841858 136.666443,322.236572 
M203.677917,473.939636 
	C201.512405,475.015930 201.345825,477.035309 201.340775,479.067596 
	C201.271652,506.888580 201.242844,534.709656 201.134079,562.530457 
	C201.122467,565.494690 202.232300,566.725525 205.244415,566.705017 
	C218.708435,566.613159 232.198013,567.285522 245.539520,564.642090 
	C257.455902,562.281006 268.272675,557.906677 275.690521,547.720398 
	C294.684723,521.637390 281.751587,485.148499 250.596298,476.388977 
	C235.388016,472.113037 219.909515,473.388885 203.677917,473.939636 
M251.881546,359.587189 
	C251.296173,359.269714 250.714584,358.945068 250.124847,358.635895 
	C235.934998,351.196777 220.589417,353.536072 205.546448,353.439331 
	C202.734879,353.421265 202.169739,355.615540 202.116196,358.004730 
	C201.985703,363.827698 201.698730,369.648651 201.655563,375.471802 
	C201.516098,394.280823 201.447693,413.090424 201.380753,431.899902 
	C201.371353,434.538422 202.392792,436.596222 205.371796,436.583679 
	C216.663422,436.536133 228.041153,437.604370 239.192123,435.159821 
	C257.443542,431.158752 267.929443,418.731659 269.506256,399.193329 
	C270.797333,383.195190 267.596954,368.957123 251.881546,359.587189 
z"/>
<path fill="#2563eb" opacity="1.000000" stroke="none"
	d="
M557.349060,566.998535 
	C557.349060,569.830505 557.003662,572.225159 557.410461,574.484314 
	C558.892944,582.716980 555.010620,587.064453 547.911560,590.719116 
	C528.023804,600.957642 507.109863,606.714661 484.771149,607.323608 
	C469.411285,607.742249 454.119995,607.060547 439.291229,602.659119 
	C401.595184,591.470398 377.898071,566.721069 370.101074,528.147278 
	C363.422546,495.106720 368.124481,463.458160 387.055817,434.956238 
	C403.634308,409.996490 427.292297,395.892883 456.935913,391.539307 
	C475.315582,388.839996 493.360931,389.570831 511.097290,395.372406 
	C534.559753,403.046906 549.985413,418.815125 558.588989,441.800568 
	C566.137878,461.968201 565.568237,482.911102 565.292664,503.865906 
	C565.255371,506.703522 563.503296,508.026794 560.805542,508.198059 
	C559.477234,508.282318 558.141235,508.261810 556.808716,508.261597 
	C517.989685,508.255524 479.170624,508.250610 440.351562,508.233826 
	C431.171814,508.229858 430.545105,509.069977 432.209747,518.035889 
	C433.783752,526.513733 436.884583,534.299927 441.834137,541.368835 
	C451.965454,555.838257 466.414948,562.339722 483.498352,563.614624 
	C506.661957,565.343140 527.434204,558.024353 546.920349,546.189575 
	C548.059265,545.497864 549.187622,544.784851 550.356201,544.146362 
	C555.135803,541.534729 557.216187,542.638794 557.312744,548.006653 
	C557.423523,554.169006 557.345032,560.334778 557.349060,566.998535 
M463.499939,474.643066 
	C475.987213,474.632965 488.476288,474.500488 500.960785,474.682343 
	C505.063141,474.742065 506.978851,473.237518 506.604492,469.196045 
	C505.414368,456.348206 502.039673,444.322571 492.877075,434.659088 
	C482.931915,424.170258 467.862396,421.760986 455.385590,429.034515 
	C439.515778,438.286102 434.163269,453.831879 431.369110,470.723419 
	C430.839111,473.927551 432.705261,474.679413 435.527618,474.654572 
	C444.517700,474.575409 453.509064,474.635590 463.499939,474.643066 
z"/>
<path fill="#2563eb" opacity="1.000000" stroke="none"
	d="
M438.327301,640.988403 
	C471.639587,638.617615 504.515930,636.786682 537.438049,635.405396 
	C589.747314,633.210571 642.052490,633.463135 694.361084,633.963623 
	C721.155823,634.219910 747.953735,635.491211 774.721008,636.870483 
	C798.465820,638.093994 822.183411,639.935974 845.886841,641.833069 
	C857.304993,642.746948 868.666077,644.387573 880.044800,645.767090 
	C882.366272,646.048584 884.694641,646.602844 886.208374,648.648315 
	C887.742310,650.721191 887.692444,653.033386 886.733154,655.286926 
	C885.584900,657.984253 883.242676,658.683472 880.552002,658.518372 
	C864.937500,657.560303 849.331726,656.429688 833.707947,655.664062 
	C820.899109,655.036377 808.071716,654.655640 795.248291,654.481079 
	C761.758118,654.025330 728.279724,654.630005 694.816895,656.057068 
	C677.350159,656.802002 659.875244,657.406555 642.420837,658.376648 
	C622.828979,659.465454 603.277954,661.107178 583.743225,663.031982 
	C565.215454,664.857666 546.728882,666.981140 528.244141,669.173462 
	C509.267609,671.424194 490.391510,674.334167 471.489990,677.110413 
	C431.035980,683.052124 390.899658,690.685303 351.003143,699.547546 
	C312.346649,708.134399 274.181458,718.651672 236.145157,729.651733 
	C227.547485,732.138123 218.954651,734.707092 209.943207,735.743469 
	C197.741226,737.146729 186.354202,735.176270 175.810455,728.991638 
	C162.670639,721.284241 151.978790,710.890930 143.361984,698.352295 
	C142.514862,697.119568 141.752029,695.816589 141.070831,694.484375 
	C138.003220,688.485046 139.367722,685.320129 145.808197,684.022278 
	C158.345123,681.495911 170.895432,679.028809 183.470123,676.698730 
	C206.651077,672.403320 229.796509,667.872925 253.062607,664.091919 
	C278.455261,659.965271 303.813049,655.548096 329.389038,652.601257 
	C351.490723,650.054810 373.563690,647.250916 395.680542,644.847534 
	C409.716675,643.322327 423.809753,642.321594 438.327301,640.988403 
z"/>
<path fill="#2563eb" opacity="1.000000" stroke="none"
	d="
M806.560913,400.752472 
	C807.901611,411.589844 807.261108,422.078308 807.171204,432.551453 
	C807.137756,436.451141 804.029907,437.186493 800.743958,437.192749 
	C789.580566,437.214050 778.417114,437.254517 767.253723,437.288361 
	C760.369019,437.309204 760.358032,437.309753 760.356201,444.208557 
	C760.348755,472.700531 760.410706,501.192810 760.287231,529.684265 
	C760.265442,534.711792 760.762939,539.660095 761.477539,544.581604 
	C763.011475,555.145935 772.598083,563.407104 783.309265,563.732239 
	C789.319275,563.914612 795.264587,563.581604 801.130371,562.087280 
	C805.077637,561.081665 807.295105,562.693420 807.312195,566.857788 
	C807.348450,575.688354 807.295654,584.519348 807.336060,593.349915 
	C807.352722,596.992981 805.016663,598.570374 802.102783,599.847046 
	C785.305725,607.206543 767.696106,608.412048 749.726135,606.758240 
	C739.610046,605.827332 730.217896,602.707581 721.734985,597.014160 
	C708.619690,588.211731 701.834534,575.496216 700.765686,560.163330 
	C698.145386,522.576294 700.279236,484.910706 699.660461,447.284058 
	C699.635803,445.784851 699.524719,444.271973 699.675415,442.787903 
	C700.083191,438.770966 698.585754,437.049866 694.333984,437.238220 
	C687.848145,437.525513 681.337341,437.209015 674.844910,437.405609 
	C670.998474,437.522095 669.412292,436.125732 669.500549,432.169220 
	C669.705139,423.009247 669.736389,413.841064 669.600769,404.679718 
	C669.537598,400.405823 671.269592,398.599060 675.518738,398.681732 
	C682.014343,398.808075 688.516968,398.594055 695.011475,398.745789 
	C698.478943,398.826782 699.730103,397.430908 699.687195,394.017059 
	C699.557373,383.688202 699.754028,373.354431 699.554443,363.027740 
	C699.488770,359.633392 700.642090,357.915131 703.872192,356.864441 
	C720.171570,351.562622 736.401306,346.047089 752.684998,340.696381 
	C758.424561,338.810425 760.324219,340.278778 760.337158,346.412750 
	C760.369812,361.908325 760.536316,377.407593 760.238159,392.897491 
	C760.145752,397.699493 761.877380,398.860229 766.289124,398.769409 
	C777.447937,398.539734 788.614563,398.688904 799.778076,398.689545 
	C802.095703,398.689697 804.501343,398.363708 806.560913,400.752472 
z"/>
<path fill="#2563eb" opacity="1.000000" stroke="none"
	d="
M586.694092,360.999939 
	C586.691650,350.168518 586.819214,339.834625 586.620911,329.507019 
	C586.545898,325.598114 587.663086,323.427582 591.706787,322.344147 
	C607.765198,318.041443 623.722656,313.362885 639.767883,309.009399 
	C646.837280,307.091217 649.327209,309.176788 649.328918,316.541779 
	C649.346741,391.527649 649.343872,466.513519 649.355530,541.499390 
	C649.356506,547.671448 649.985718,553.801392 651.599243,559.750244 
	C653.206848,565.677002 655.974304,567.694153 662.033508,567.706299 
	C666.179688,567.714600 670.313232,567.846130 674.461487,566.953003 
	C679.221252,565.928223 681.240479,567.785889 681.304138,572.776489 
	C681.393433,579.774048 681.116028,586.782776 681.413025,593.768982 
	C681.611267,598.431763 679.434570,600.777466 675.393188,602.311584 
	C668.640198,604.875061 661.622986,606.382446 654.500488,606.888245 
	C637.602478,608.088440 620.718628,608.470154 605.984253,597.921326 
	C594.699463,589.842224 589.234192,578.454895 587.661255,564.911072 
	C586.659058,556.281921 586.713196,547.625549 586.711853,538.966736 
	C586.702454,479.811127 586.699463,420.655548 586.694092,360.999939 
z"/>
<path fill="#2563eb" opacity="1.000000" stroke="none"
	d="
M825.094727,588.034058 
	C826.212097,527.418640 825.391479,467.286774 825.629578,407.158020 
	C825.662109,398.943146 825.867920,398.731262 834.055847,398.726624 
	C849.048035,398.718079 864.040283,398.701752 879.032410,398.731323 
	C885.434875,398.743958 886.321655,399.622772 886.322876,405.912537 
	C886.334900,469.379486 886.335510,532.846436 886.325439,596.313416 
	C886.324341,603.068787 885.239929,604.175049 878.512329,604.189941 
	C863.020508,604.224365 847.528503,604.230103 832.036743,604.185730 
	C826.334595,604.169373 825.096497,602.829224 825.060120,597.018616 
	C825.042358,594.187073 825.081299,591.355042 825.094727,588.034058 
z"/>
<path fill="#2563eb" opacity="1.000000" stroke="none"
	d="
M868.021240,315.622742 
	C886.450562,323.032562 895.271240,340.350830 890.170654,358.439026 
	C885.661316,374.430206 868.680420,385.514374 852.535889,383.163696 
	C830.380188,379.937836 818.585510,360.820129 822.176697,342.568817 
	C826.554626,320.318756 845.890442,309.149902 868.021240,315.622742 
z"/>
</svg>